<svg width="155" height="62" viewBox="0 0 155 62" fill="none" xmlns="http://www.w3.org/2000/svg">
<path d="M74.1454 55.7584H55.4867C49.1765 55.7584 44.063 50.6449 44.063 44.3347V38.2421C44.063 31.9318 49.1765 26.8184 55.4867 26.8184H74.1998C80.51 26.8184 85.6235 31.9318 85.6235 38.2421V44.3347C85.5691 50.6449 80.4556 55.7584 74.1454 55.7584ZM55.4867 34.271C53.2564 34.271 51.4612 36.0661 51.4612 38.2965V44.3891C51.4612 46.6194 53.2564 48.4146 55.4867 48.4146H74.1998C76.4301 48.4146 78.2253 46.6194 78.2253 44.3891V38.2421C78.2253 36.0117 76.4301 34.2166 74.1998 34.2166H55.4867V34.271Z" fill="#F2920D"/>
<path d="M135.779 55.7584H100.692C94.3815 55.7584 89.2681 50.6449 89.2681 44.3347V38.2421C89.2681 31.9318 94.3815 26.8184 100.692 26.8184H135.779C142.089 26.8184 147.203 31.9318 147.203 38.2421V44.3347C147.203 50.6449 142.089 55.7584 135.779 55.7584ZM100.692 34.271C98.4614 34.271 96.6663 36.0661 96.6663 38.2965V44.3891C96.6663 46.6194 98.4614 48.4146 100.692 48.4146H135.779C138.009 48.4146 139.804 46.6194 139.804 44.3891V38.2421C139.804 36.0117 138.009 34.2166 135.779 34.2166H100.692V34.271Z" fill="#F2920D"/>
<path d="M28.8858 26.8185H18.4413C17.0269 26.8185 15.667 27.0905 14.4158 27.5256V9.5741C14.4158 7.50696 12.7838 5.875 10.7167 5.875C8.64954 5.875 7.01758 7.50696 7.01758 9.5741V44.2804C7.01758 50.5906 12.131 55.7041 18.4413 55.7041H28.8858C35.196 55.7041 40.3095 50.5906 40.3095 44.2804V38.2422C40.3095 31.9863 35.196 26.8185 28.8858 26.8185ZM32.9113 44.3348C32.9113 46.5651 31.1162 48.3603 28.8858 48.3603H18.4413C16.2109 48.3603 14.4158 46.5651 14.4158 44.3348V38.2422C14.4158 36.0118 16.2109 34.2167 18.4413 34.2167H28.8858C31.1162 34.2167 32.9113 36.0118 32.9113 38.2422V44.3348Z" fill="#F2920D"/>
</svg>
